<?xml version="1.0" encoding="iso-8859-1"?>
<!-- Generator: Adobe Illustrator 19.0.0, SVG Export Plug-In . SVG Version: 6.00 Build 0)  -->
<svg version="1.1" id="Capa_1" xmlns="http://www.w3.org/2000/svg" xmlns:xlink="http://www.w3.org/1999/xlink" x="0px" y="0px"
	 viewBox="0 0 512 512" style="enable-background:new 0 0 512 512;" xml:space="preserve">
<path style="fill:#AAC4DA;" d="M426.667,96h-64c-11.768-0.035-21.298-9.566-21.333-21.333v-64L426.667,96z"/>
<path style="fill:#D9EEF7;" d="M426.667,96v384c-0.035,11.768-9.566,21.298-21.333,21.333H64
	c-11.767-0.035-21.298-9.566-21.333-21.333V32C42.702,20.233,52.233,10.702,64,10.667h277.333v64
	c0.035,11.767,9.566,21.298,21.333,21.333H426.667z"/>
<circle style="fill:#FFE451;" cx="330.667" cy="298.667" r="138.667"/>
<g>
	<circle style="fill:#D9EEF7;" cx="373.333" cy="256" r="21.333"/>
	<circle style="fill:#D9EEF7;" cx="288" cy="256" r="21.333"/>
</g>
<g>
	<path style="fill:#4C5B66;" d="M480,298.667c0-82.475-66.859-149.333-149.333-149.333s-149.333,66.859-149.333,149.333v112.917
		l-24.459-24.459l-15.083,15.083l42.667,42.667c4.165,4.164,10.917,4.164,15.083,0l42.667-42.667l-15.083-15.083l-24.459,24.459
		V298.667c0-70.692,57.308-128,128-128s128,57.308,128,128s-57.308,128-128,128V448C413.105,447.912,479.912,381.105,480,298.667z"
		/>
	<path style="fill:#4C5B66;" d="M96,64h106.667v21.333H96V64z"/>
	<path style="fill:#4C5B66;" d="M96,106.667h21.333V128H96V106.667z"/>
	<path style="fill:#4C5B66;" d="M138.667,106.667H160V128h-21.333V106.667z"/>
	<path style="fill:#4C5B66;" d="M416,480c0,5.891-4.776,10.667-10.667,10.667H64c-5.891,0-10.667-4.776-10.667-10.667V32
		c0-5.891,4.776-10.667,10.667-10.667h266.667v53.333c0,17.673,14.327,32,32,32H384V85.333h-21.333
		c-5.891,0-10.667-4.776-10.667-10.667V36.416l64,64v38.251h21.333V96c-0.001-2.829-1.125-5.541-3.125-7.541L348.875,3.125
		c-2-2.001-4.713-3.125-7.541-3.125H64C46.327,0,32,14.327,32,32l0,0v448c0,17.673,14.327,32,32,32h341.333
		c17.673,0,32-14.327,32-32v-21.333H416V480z"/>
	<path style="fill:#4C5B66;" d="M320,256c0-17.673-14.327-32-32-32c-17.673,0-32,14.327-32,32s14.327,32,32,32
		C305.673,288,320,273.673,320,256z M277.333,256c0-5.891,4.776-10.667,10.667-10.667c5.891,0,10.667,4.776,10.667,10.667
		c0,5.891-4.776,10.667-10.667,10.667C282.109,266.667,277.333,261.891,277.333,256z"/>
	<path style="fill:#4C5B66;" d="M405.333,256c0-17.673-14.327-32-32-32s-32,14.327-32,32s14.327,32,32,32
		S405.333,273.673,405.333,256z M362.667,256c0-5.891,4.776-10.667,10.667-10.667S384,250.109,384,256
		c0,5.891-4.776,10.667-10.667,10.667S362.667,261.891,362.667,256z"/>
	<path style="fill:#4C5B66;" d="M277.333,373.333c0-29.455,23.878-53.333,53.333-53.333S384,343.878,384,373.333h21.333
		c0-41.237-33.429-74.667-74.667-74.667S256,332.096,256,373.333H277.333z"/>
</g>
<g>
</g>
<g>
</g>
<g>
</g>
<g>
</g>
<g>
</g>
<g>
</g>
<g>
</g>
<g>
</g>
<g>
</g>
<g>
</g>
<g>
</g>
<g>
</g>
<g>
</g>
<g>
</g>
<g>
</g>
</svg>
